<?xml version="1.0" encoding="UTF-8"?>
<svg id="Layer_2" data-name="Layer 2" xmlns="http://www.w3.org/2000/svg" viewBox="0 0 134.14 183.08">
  <defs>
    <style>
      .cls-1 {
        fill: #231f20;
        stroke-width: 0px;
      }
    </style>
  </defs>
  <g id="Layer_3" data-name="Layer 3">
    <g id="Layer_1-2" data-name="Layer 1">
      <g>
        <g>
          <path class="cls-1" d="M66.62,98.91c-1.66,1.59-3.83,2.73-5.85,2.9-3.81.33-7.7-1.7-10.45-4.18-.64-.58-1.24-1.2-1.78-1.87-2.22-2.77-2.98-5.63-3.24-7.37-.86-5.69,1.15-28.73-4.82-28.73-5.9,0-6.45,10.64-6.71,14.61-.22,3.33-.11,6.63.03,9.95.09,2.2-.49,2.9-2.74,3.2-1.47.2-7.66.32-9.09-.16-1.19-.41-1.18-1.97-1.21-2.99-.05-1.71-.16-3.42-.16-5.14,0-3.22-.08-7.82,1.85-10.55.71-1.01,1.49-1.91,2.36-2.78,1.35-1.33,3.06-2.67,3.69-4.52,1.24-3.65-.13-8.16-2.48-11.07-.93-1.15-2.25-2.34-3.82-2.37-2.51-.04-4.32,2.74-5.36,4.69-1.41,2.63-2.33,5.83-1.76,8.82.47,2.47,2.68,4.09,3.51,6.4.44,1.21.16,2.53.1,3.78-.07,1.55-.11,3.1-.1,4.66,0,2.25.09,4.51.26,6.75.13,1.71.62,3.78-1.46,4.46-1.84.61-8.36,0-10.25,0-1.67,0-2.82.31-2.94-1.61-.12-1.97.81-4.06,1.06-6,.22-1.75.43-3.52.43-5.28,0-1.15.07-1.87.07-2.02,0-4.91-.92-9.77-.89-14.67.01-1.96-.14-4.17,1.15-5.78,1.09-1.36,3.01-2.45,4.79-2.01,2.34.57,3.43,3.73,3.64,5.37.03.22.08.39.13.73.32,1.96.35,3.56.32,4.62-.44-.9-.9-2.16-1.01-3.71-.4-5.59,4.09-12.07,8.47-11.99,4.38.08,7.28,6.68,8.78,10.11,1.42,3.25,1.97,6.21,2.2,8.32,1.01-4.46,3.53-8.21,8.57-8.21,11.02,0,11.74,11.31,11.74,19.87,0,1.3-.29,9.79-.29,12.31,0,4.18.22,10.73,4.75,10.73,1.47,0,2.87-1.1,3.99-1.94,1.53-1.14,2.91-2.44,4.22-3.82.41-.43.86-1,1.41-1.28,1.07-.54,1.56.71,1.64,1.56.22,2.38-1.09,4.61-2.75,6.21Z"/>
          <path class="cls-1" d="M74.33,86.93c-.15-.16-.27-.35-.34-.57-.56-1.84.62-4.58.79-6.44.2-2.23.32-4.46.31-6.7-.01-3.17-.54-6.4-.84-9.56-.1-1.06-.79-3.46-.38-4.46.64-1.56,5.09-2.72,6.79-2.89,2.59-.25,3.61,2,2.86,4.42,1.08-3.46,4.1-5.4,7.63-5.4,4.83,0,7.71,1.8,9.43,4.61,1.73,2.88,2.02,6.26,2.02,9.15,0,.5-.07,1.08-.07,1.58-.07,1.22-.14,2.38-.14,3.53,0,.58,0,2.3.22,4.9.2,2.35,2.37,7.23-.48,8.14-1.86.59-4.7.55-6.6.12-3.52-.81-1.48-6.11-1.42-8.62.07-1.37.07-2.52.07-3.24,0-2.66-.07-6.34-.79-9.87-.72-3.46-2.16-5.9-4.46-5.9-5.26,0-6.34,10.01-6.34,17.14,0,.5,0,3.02.36,6.48.25,2.38-.05,3.65-2.67,4.16-1.44.28-4.78.63-5.94-.58Z"/>
          <path class="cls-1" d="M118.73,65.78c1.73,0,3.6.22,5.11,1.08-.22-3.17-2.09-9-5.26-9-2.96,0-2.55,2.85-3.99,4.42-1.64,1.8-4.03-.31-5.1-1.68-2.09-2.69,1.42-3.45,3.6-4.24,2.03-.73,4.12-1.09,6.27-1.09,8.64,0,13.9,7.99,13.9,16.06,0,4.36.85,8.78.78,13.1-.06,3.51-4.46,3.64-7.11,2.78-.95-.31-1.61-1.23-2.61-1.37-1.47-.21-2.81,1.03-4.17,1.39-1.1.29-2.17.38-3.3.38-4.61,0-10.22-2.88-10.22-11.09,0-6.91,5.69-10.73,12.1-10.73ZM115.35,77.01c0,.29-.14,1.8.79,3.89.86,2.09,2.52,3.67,4.82,3.67,1.15,0,2.23-.58,3.17-1.22v-2.02l.07-3.82v-1.94c0-1.73.07-2.74.07-2.95,0-.79-.14-1.58-.29-2.38-.22-1.22-1.58-1.58-2.52-1.58-.36,0-.72,0-1.15.14-3.67,1.01-4.97,5.04-4.97,8.21Z"/>
          <g>
            <path class="cls-1" d="M1.19,43.64c-1.6-2.33-1.8-5.81.72-7.55,1.25-.86,2.49-1.12,3.98-1.11,0,.48.22,1.53-.03,1.93-.4.63-1.29,0-1.84-.07-.7-.08-1.39.13-1.96.53-1.07.73-1.24,1.79-.95,2.62.15.4.3.76.51,1.07.23.34.76,1.05,1.88,1.68.55.32,1.16.54,1.78.66,1.29.25,2.23-.13,2.86-.57.24-.16.56-.45.93-.84.32-.34.52-1.39,1.11-1.26s.48,1.28.44,1.7c-.14,1.34-.98,2.44-2.07,3.19-2.54,1.74-5.43.84-7.36-1.98Z"/>
            <path class="cls-1" d="M11.91,31.51c.1.07.18.17.24.31.3.66.27,1.7.43,2.43.12.54.79,2.05.61,2.54.3-.83.74-1.59,1.53-1.79,2.31-.57,3.24,1.19,3.71,3.09.15.62.3,1.25.48,1.86.13.42.67,1.28.6,1.68-.13.71-1.38.95-1.95.8-.9-.24-.85-1.32-.96-2.06-.18-1.05-.33-1.66-.36-1.77-.35-1.43-.94-2.9-1.73-2.71-.56.14-.74.85-.71,1.79.03.96.23,1.85.38,2.45.21.85,1.09,2.2.42,2.92-.27.29-1.08.57-1.46.63-.68.1-.87-.32-1.12-.94-.47-1.2-.41-2.53-.66-3.78-.16-.81-.33-1.63-.53-2.43-.4-1.61-.9-3.13-1.51-4.62.68-.17,1.96-.88,2.59-.41Z"/>
            <path class="cls-1" d="M22,38.63c-.09.62.01,1.13.32,1.54.28.42.61.69.94.81.35.12.61.2.82.23.43.06,1.61-.3,1.76.21.13.48-.79.92-1.11,1.08-.63.32-1.33.44-2.03.34-2.21-.33-3.42-2.14-3.06-4.56.23-1.55,1.16-2.59,2.29-3.1.56-.24,1.02-.36,1.38-.34.38.02.61.04.72.05.96.14,1.92.68,2.47,1.98.29.71.61,1.9-.29,2.27-.68.29-1.56-.13-2.24-.23l-1.97-.29ZM23.22,38.23c.84.12,1.54-.23,1.67-1.1.08-.57.03-.96-.16-1.15-.21-.19-.39-.29-.59-.32-.23-.03-.72-.05-1.4.74-.33.41-.56.96-.66,1.67l1.14.17Z"/>
            <path class="cls-1" d="M29.73,36.29c.04-.05,2.94,1.7,3.15,1.82.55.32,1.63.69,2.03,1.17.47.58-.61.93-1.13,1.23-.64.38-1.28.76-1.91,1.16-1.23.78-2.45,1.59-3.62,2.47.65.38,1.41.51,2.16.54.52.02,1.61-.41,1.82.3.07.24-.75,1.55-.81,1.51-1.21-.7-2.42-1.4-3.62-2.1-.47-.27-2.19-.93-1.96-1.62.15-.43,1.32-.78,1.7-.96.59-.28,1.19-.55,1.75-.89,1.2-.73,2.36-1.54,3.43-2.44,0,0-1.42-.44-1.57-.46-.61-.07-1.21.04-1.82,0-1.26-.07-.01-1.23.39-1.76Z"/>
          </g>
          <g>
            <path class="cls-1" d="M63.18,50.78c1.78.03,3.07-2.69,3.72-4.07.91-1.92,2.09-4.43.76-6.61-.93-1.53-2.86-2.48-4.77-2.28-2.59.28-4.27,2.59-4.56,4.52-.22,1.49.34,2.63,1.2,4.32.95,1.89,2.06,4.09,3.65,4.12ZM61.92,40.52c.57-.56,1.51-.62,2.18-.17.74.49,1,1.5.59,2.29-.33.63-1.06,1.03-1.8.91-.73-.12-1.21-.71-1.38-1.28-.01-.05-.29-1.06.41-1.74Z"/>
            <path class="cls-1" d="M68.04,71.47c0-2.09.09-4.17.24-6.25.13-1.86.75-4.04.55-5.89-.3-2.89-2.36-4.06-5.02-4.06-1.42,0-2.76-.4-3.51.74-2.8,4.29-.9,10.65-.9,15.39,0,.36-.07,1.94-.07,4.82,0,3.2-1.51,6.85.64,9.5.22.27.48.54.79.79,1.8,1.47,3.96,1.47,5.72-.04,2.15-1.84,2.21-3.69,1.99-6.28-.5-5.11-.43-8.21-.43-8.71Z"/>
          </g>
        </g>
        <g>
          <path class="cls-1" d="M84.28,109.64c-.17,0-.34-.06-.49-.17-.12-.09-.25-.25-.25-.56.01-1.37.03-2.73.05-4.08.02-1.35.05-2.71.09-4.08-.81-.8-1.63-1.76-2.39-2.71-.68-.84-1.35-1.68-2.02-2.53l-.33,13.31c0,.31-.14.47-.26.56-.16.11-.33.16-.5.16s-.34-.06-.49-.17c-.12-.09-.25-.26-.23-.57,0-.09.02-.49.02-.59v-.25l.38-14.55c.02-.23.11-.41.27-.54.15-.12.32-.18.5-.18.13,0,.25.03.36.08.12.06.22.16.29.3.77.99,1.56,1.99,2.36,2.99.7.88,1.42,1.74,2.17,2.6.06-1.66.12-3.32.2-4.97l-.05-.19c.02-.24.11-.43.28-.55.16-.11.33-.16.5-.16s.34.06.49.17c.11.09.24.26.22.57-.24,5.1-.37,10.28-.4,15.38,0,.25-.08.43-.25.56-.15.11-.32.17-.49.17Z"/>
          <path class="cls-1" d="M84.11,93.53c.01-.19.08-.33.21-.42.13-.09.26-.13.4-.13s.26.04.38.13c.11.09.16.23.15.42-.24,5.13-.37,10.26-.4,15.39,0,.19-.06.33-.18.42-.12.09-.25.13-.39.13s-.27-.04-.39-.13c-.12-.09-.18-.23-.18-.42.01-1.37.03-2.73.05-4.07.02-1.35.05-2.7.09-4.07-.84-.92-1.65-1.86-2.43-2.83-.78-.97-1.55-1.94-2.32-2.92l-.34,13.8c0,.19-.06.33-.19.42-.13.09-.26.13-.4.13s-.27-.04-.39-.13c-.12-.09-.17-.23-.16-.42,0-.1,0-.2,0-.3s0-.2,0-.3v-.25c.06-2.44.13-4.86.19-7.27.06-2.41.13-4.83.19-7.27.01-.18.08-.31.2-.41s.25-.14.39-.14c.1,0,.19.02.28.07.09.04.16.12.21.22.79,1.02,1.58,2.02,2.38,3.02.79.99,1.62,1.97,2.47,2.94.06-1.87.14-3.74.23-5.6h-.06Z"/>
          <path class="cls-1" d="M90.71,110.08c-.44,0-.85-.08-1.23-.25-.37-.16-.72-.39-1.02-.66-.3-.27-.56-.59-.79-.94-.23-.35-.41-.72-.54-1.1-.26-.77-.4-1.59-.43-2.43-.03-.83-.04-1.65,0-2.45.02-.78.09-1.56.2-2.32.1-.75.25-1.51.45-2.28.11-.44.25-.93.41-1.46.16-.54.37-1.05.64-1.52.27-.48.6-.88,1-1.21.41-.34.93-.52,1.53-.53h.23c.7.08,1.27.33,1.74.73.45.4.84.89,1.14,1.48.37.72.66,1.46.85,2.21.2.76.33,1.53.39,2.3.11,1.68.04,3.36-.23,5-.09.55-.24,1.15-.43,1.77-.2.63-.47,1.22-.8,1.75-.34.53-.76.98-1.26,1.34-.51.37-1.13.55-1.83.55ZM90.99,94.4c-.21,0-.39.04-.54.12-.17.09-.31.19-.44.33-.14.14-.25.3-.35.48-.11.19-.2.38-.29.57-.21.49-.39,1.03-.54,1.59-.16.57-.28,1.16-.38,1.76-.1.6-.18,1.19-.22,1.79-.05.59-.08,1.16-.08,1.69,0,.65.02,1.31.05,1.99.03.66.15,1.31.36,1.91.08.23.19.47.33.7.14.22.3.42.49.6.19.17.4.32.63.42.23.1.48.15.74.15.25,0,.48-.05.68-.16.22-.11.41-.25.59-.42.17-.16.33-.35.47-.57.14-.22.27-.44.38-.66.28-.57.48-1.18.59-1.82.11-.65.19-1.29.24-1.93l.02-.26.03.02c.04-.59.06-1.18.07-1.78,0-.69-.04-1.37-.14-2.03-.05-.36-.14-.79-.27-1.3-.13-.5-.31-.99-.54-1.47-.22-.47-.5-.87-.82-1.21-.3-.32-.65-.49-1.06-.53Z"/>
          <path class="cls-1" d="M93.88,95.24c.35.69.62,1.41.82,2.16.19.75.32,1.51.39,2.27.11,1.67.04,3.33-.23,4.96-.09.54-.23,1.12-.43,1.75s-.46,1.19-.78,1.71c-.33.51-.73.95-1.22,1.29-.48.35-1.06.52-1.73.52-.41,0-.8-.08-1.16-.24-.36-.16-.68-.37-.97-.63-.29-.26-.54-.57-.76-.91-.22-.34-.39-.69-.52-1.06-.25-.75-.39-1.55-.42-2.38-.03-.83-.04-1.64,0-2.43.02-.78.09-1.55.2-2.3.11-.75.25-1.51.44-2.26.11-.44.25-.92.41-1.45.16-.53.36-1.02.62-1.48s.58-.85.96-1.16c.38-.31.86-.48,1.42-.49h.23c.64.08,1.18.31,1.62.69.44.38.8.86,1.09,1.42l.02.02ZM93.9,103c.05-.68.08-1.36.08-2.06,0-.69-.04-1.38-.14-2.06-.05-.36-.14-.81-.27-1.32-.13-.51-.31-1.02-.55-1.5-.23-.48-.52-.9-.85-1.25-.33-.35-.73-.55-1.18-.58-.24,0-.45.05-.63.14s-.35.22-.49.37c-.15.15-.27.32-.38.52-.11.19-.2.39-.29.57-.21.5-.4,1.04-.56,1.62-.16.58-.29,1.17-.39,1.77s-.18,1.2-.23,1.8c-.05.6-.08,1.17-.08,1.71,0,.65.02,1.32.05,2,.03.68.15,1.33.37,1.96.09.25.2.5.35.74.14.24.32.45.52.64s.43.34.68.45.52.17.81.17.53-.06.76-.18c.23-.12.44-.27.63-.44s.35-.38.5-.6c.14-.23.27-.45.39-.68.29-.59.49-1.21.6-1.87s.19-1.3.25-1.94l.04.02Z"/>
          <path class="cls-1" d="M97.43,109.96c-.17,0-.34-.06-.49-.17-.16-.12-.25-.3-.27-.53-.08-1.25-.1-2.52-.08-3.79.02-1.26.06-2.52.11-3.78.06-1.26.12-2.52.19-3.77.07-1.26.12-2.51.16-3.77,0-.17.05-.33.16-.45.14-.19.35-.29.59-.29h4.31v.04c.2.04.31.14.38.23.11.15.17.32.17.49s-.06.34-.17.49c-.12.17-.31.25-.56.25h-3.39c-.04,1.11-.08,2.22-.14,3.31l-.18,3.29h1.62c.31,0,.47.14.56.25.11.15.17.32.17.49s-.06.34-.17.49c-.08.11-.25.25-.56.25h-1.7c-.03,1.01-.05,2.02-.06,3.02,0,1.06.02,2.12.09,3.19.02.31-.12.48-.23.57-.15.11-.32.17-.49.17Z"/>
          <path class="cls-1" d="M101.92,93.62c.19,0,.33.06.41.18.09.12.13.25.13.39s-.04.27-.13.39-.23.18-.41.18h-3.57c-.04,1.17-.09,2.33-.15,3.48s-.13,2.31-.19,3.48h1.81c.19,0,.33.06.41.18.09.12.13.25.13.39s-.04.27-.13.39c-.09.12-.23.18-.41.18h-1.87c-.04,1.07-.06,2.13-.07,3.2,0,1.06.02,2.13.09,3.2.01.19-.04.33-.16.42-.12.09-.25.13-.39.13s-.27-.04-.39-.13c-.12-.09-.19-.22-.2-.4-.08-1.26-.1-2.51-.08-3.77s.06-2.51.11-3.77c.06-1.26.12-2.51.19-3.77s.12-2.51.16-3.77c0-.14.04-.25.11-.34.11-.15.26-.23.45-.23h4.13v.02Z"/>
          <path class="cls-1" d="M108.18,108.47c-.58-.03-1.17-.04-1.77-.04s-1.18.01-1.78.04h0c-.21,0-.37-.07-.52-.21-.16-.16-.24-.34-.22-.55.24-2.53.37-5.07.39-7.58.02-2.52.02-5.05,0-7.61,0-.31.14-.47.25-.56.15-.11.32-.17.49-.17s.34.06.49.17c.17.12.25.31.25.56.02,2.45.03,4.88.02,7.3-.01,2.34-.12,4.72-.32,7.09.43-.01.85-.02,1.28-.02.49,0,.98,0,1.48.03h.17v.08c.16.04.29.12.38.25.11.15.17.32.17.5s-.06.35-.17.5c-.08.1-.23.22-.5.22h-.07Z"/>
          <path class="cls-1" d="M108.19,107.16c.19.01.33.08.41.2.09.12.13.25.13.4s-.04.27-.13.39c-.09.11-.23.16-.41.15-1.18-.05-2.37-.05-3.56,0-.14.01-.27-.04-.4-.16-.13-.12-.18-.25-.17-.41.24-2.54.37-5.07.39-7.59s.02-5.06,0-7.61c0-.19.06-.33.18-.42.12-.09.25-.13.39-.13s.27.04.39.13.18.23.18.42c.02,2.45.03,4.88.02,7.3-.01,2.41-.13,4.84-.34,7.28.98-.04,1.96-.04,2.94,0v.06Z"/>
          <path class="cls-1" d="M110.91,109.36c-.18,0-.35-.06-.49-.17-.12-.09-.25-.26-.23-.57.08-1.67.17-3.33.29-4.99.12-1.65.31-3.32.58-4.97.05-.31.12-.69.2-1.12.08-.43.19-.88.31-1.33.13-.46.28-.91.46-1.36s.41-.87.66-1.23c.26-.37.58-.67.92-.89.36-.23.78-.35,1.24-.35.32,0,.62.07.89.2h0c.35.18.64.46.85.8.2.33.36.68.46,1.03.27.85.41,1.75.42,2.67.01.91,0,1.8-.02,2.67-.05,1.48-.09,2.95-.13,4.41-.04,1.46-.08,2.93-.13,4.41,0,.3-.14.47-.27.55-.16.11-.32.16-.5.16s-.34-.06-.49-.17c-.11-.08-.24-.25-.24-.55l.11-4.19c-.25-.01-.5-.02-.75-.02h-.46c-.31,0-.63,0-.94-.03-.32-.01-.65-.03-.96-.06-.26-.02-.52-.05-.78-.07-.06.7-.1,1.41-.14,2.11l-.11,2.32c-.02.25-.11.43-.27.55-.15.11-.32.17-.49.17ZM112.79,102.86c.26.02.79.05.79.05l.16-.05c.25.02.51.03.77.03h.77c.2-.01.41,0,.61,0l.11-3.1c.02-.78.04-1.56.04-2.36s-.1-1.55-.3-2.28l-.13-.45c-.05-.15-.11-.29-.18-.42-.07-.12-.16-.22-.26-.3-.09-.07-.2-.1-.33-.1-.25,0-.48.11-.69.35-.23.25-.44.59-.62.99-.18.4-.35.88-.49,1.4-.14.52-.27,1.03-.36,1.53-.1.5-.18.96-.23,1.39-.06.43-.1.76-.14,1-.05.4-.09.8-.13,1.2,0,0,.39,1.1.63,1.12Z"/>
          <path class="cls-1" d="M115.66,92.74c.33.18.59.42.78.75.19.32.34.65.44.99.26.84.4,1.72.41,2.62s0,1.79-.02,2.66c-.05,1.48-.09,2.95-.13,4.41s-.08,2.93-.13,4.41c0,.19-.06.33-.19.41-.13.09-.26.13-.4.13s-.26-.04-.38-.13c-.11-.09-.17-.23-.17-.41l.11-4.36c-.39-.03-.78-.03-1.16-.03-.38,0-.77,0-1.16-.03-.33-.01-.65-.03-.96-.06-.31-.02-.63-.06-.96-.09-.06.77-.11,1.53-.15,2.3-.04.77-.08,1.54-.11,2.32-.01.19-.08.33-.2.42-.12.09-.25.13-.39.13s-.27-.04-.39-.13c-.12-.09-.17-.23-.16-.42.08-1.67.17-3.33.29-4.99.12-1.65.31-3.3.58-4.95.05-.31.12-.69.2-1.11.08-.43.18-.87.31-1.32.13-.45.28-.9.45-1.34.18-.44.39-.84.64-1.19.25-.35.54-.63.88-.85.33-.21.71-.32,1.14-.32.3,0,.58.06.83.19l-.02-.02ZM113.72,103.03c.39.03.78.03,1.17.02s.78,0,1.17.02l.11-3.28c.02-.78.04-1.57.04-2.37s-.1-1.57-.3-2.33c-.04-.14-.08-.29-.13-.45s-.12-.31-.2-.45c-.08-.14-.18-.25-.3-.35-.12-.09-.27-.14-.44-.14-.3,0-.58.14-.82.41-.25.27-.46.62-.65,1.04-.19.42-.35.9-.5,1.42-.14.53-.27,1.04-.37,1.55-.1.5-.18.97-.24,1.4s-.1.76-.14,1c-.05.4-.09.81-.13,1.22-.04.41-.08.81-.11,1.22.3.04.6.07.91.09.3.03.61.04.92.06l.02-.06Z"/>
          <path class="cls-1" d="M122.68,109.44c-.18,0-.34-.06-.49-.17-.12-.08-.25-.25-.25-.56v-7.47c-.48-1.29-.93-2.58-1.39-3.85-.45-1.26-.98-2.53-1.57-3.76-.18-.36-.06-.63.07-.79.18-.22.39-.33.64-.33.19,0,.45.07.6.41.53,1.12,1.01,2.26,1.44,3.4.38,1.01.74,2.03,1.1,3.06.13-.28.25-.57.37-.87.17-.44.34-.86.52-1.28.33-.75.64-1.5.95-2.25.3-.72.62-1.45.96-2.16l.02-.12c.12-.25.32-.39.58-.39.24,0,.46.11.64.33.19.23.22.5.09.79-.35.74-.68,1.48-.99,2.23-.31.75-.62,1.5-.95,2.26-.25.59-.5,1.19-.74,1.8-.24.61-.53,1.21-.86,1.79l.02,7.21c0,.31-.14.47-.25.56-.15.11-.32.17-.49.17Z"/>
          <path class="cls-1" d="M125.79,92.77c.09-.19.23-.28.42-.28s.35.09.5.26c.14.18.17.38.07.6-.35.74-.68,1.49-.99,2.23-.31.75-.62,1.5-.95,2.25-.25.59-.5,1.19-.74,1.8-.24.61-.52,1.2-.85,1.76v7.3c0,.19-.06.33-.18.41-.12.09-.25.13-.39.13s-.27-.04-.39-.13c-.12-.09-.18-.23-.18-.41v-7.47s-.04-.04-.04-.06c-.45-1.29-.91-2.58-1.37-3.86s-.98-2.54-1.57-3.78c-.11-.23-.1-.43.05-.6.14-.18.31-.26.5-.26.2,0,.35.1.43.3.53,1.12,1.01,2.25,1.43,3.39.43,1.14.84,2.3,1.24,3.47.2-.42.39-.84.56-1.27s.34-.86.52-1.27c.33-.75.64-1.51.95-2.25.31-.75.64-1.49.99-2.23l-.02-.04Z"/>
          <path class="cls-1" d="M133.02,109.55c-.57-.04-1.1-.18-1.57-.42-.46-.23-.88-.54-1.23-.9-.35-.36-.65-.79-.89-1.27-.24-.47-.42-.98-.55-1.51-.22-.94-.33-1.91-.33-2.88s.01-1.92.04-2.86c.02-1.05.08-2.1.18-3.14.1-1.04.25-2.08.47-3.11.01-.16.08-.31.19-.44.12-.14.3-.21.53-.21.23,0,.48-.01.72-.01.37,0,.74.01,1.11.03.62.04,1.24.12,1.84.23.27.03.43.15.52.32.08.17.1.34.05.52-.05.17-.15.33-.31.45-.12.1-.27.15-.43.15l-.17-.02c-.47-.09-.94-.15-1.42-.18-.43-.03-.86-.04-1.28-.05-.16.81-.28,1.64-.35,2.48-.08.88-.14,1.77-.16,2.67l-.05,1.8c.29,0,.58.01.86.01h1.05c.31,0,.47.14.56.25.11.15.17.31.17.49s-.06.34-.17.49c-.08.11-.25.25-.56.25h-1.05c-.28,0-.56,0-.84-.01.02.48.07,1.01.14,1.57.09.63.25,1.23.48,1.77.23.54.55,1.01.95,1.39.39.37.91.58,1.54.63.23.02.41.11.53.28.11.15.16.32.16.51s-.06.35-.17.49c-.11.14-.28.21-.49.21h-.07Z"/>
          <path class="cls-1" d="M133.54,93.21c.18.04.29.12.36.25s.08.26.04.4-.12.26-.25.36-.28.13-.45.09c-.48-.09-.96-.15-1.44-.18-.48-.03-.97-.05-1.44-.05-.18.88-.3,1.76-.39,2.64-.08.88-.14,1.77-.16,2.68l-.06,1.98c.35.01.7.02,1.05.02h1.05c.19,0,.33.06.41.18.09.12.13.25.13.39s-.04.27-.13.39c-.09.12-.23.18-.41.18h-1.05c-.35,0-.69,0-1.03-.02.01.54.06,1.13.15,1.78.09.65.25,1.25.49,1.82.24.57.57,1.05.99,1.45.42.4.97.63,1.65.68.18.01.31.08.4.21.09.13.13.26.13.41s-.04.27-.13.38c-.09.11-.23.15-.41.14-.55-.04-1.05-.17-1.5-.4s-.84-.52-1.18-.87-.62-.76-.86-1.23-.41-.96-.54-1.47c-.21-.93-.32-1.88-.32-2.84s.01-1.91.04-2.86c.02-1.06.08-2.1.18-3.13.1-1.03.25-2.06.46-3.09.01-.14.06-.26.15-.36.09-.1.22-.15.4-.15.6-.02,1.21-.02,1.82.02.61.04,1.22.11,1.82.23l.04-.02Z"/>
        </g>
      </g>
    </g>
  </g>
</svg>